<?xml version="1.0" standalone="no"?>
<!DOCTYPE svg PUBLIC "-//W3C//DTD SVG 20010904//EN"
 "http://www.w3.org/TR/2001/REC-SVG-20010904/DTD/svg10.dtd">
<svg version="1.0" xmlns="http://www.w3.org/2000/svg"
 width="512.000000pt" height="512.000000pt" viewBox="0 0 512.000000 512.000000"
 preserveAspectRatio="xMidYMid meet">
<metadata>
Created by potrace 1.11, written by Peter Selinger 2001-2013
</metadata>
<g transform="translate(0.000000,512.000000) scale(0.100000,-0.100000)"
fill="#000000" stroke="none">
<path d="M2174 5100 c-85 -28 -126 -52 -182 -109 -113 -112 -154 -283 -105
-436 45 -141 176 -261 322 -294 23 -5 -61 -9 -224 -9 -270 -1 -286 -3 -352
-26 -134 -47 -255 -187 -280 -322 -32 -182 47 -361 202 -456 43 -27 130 -59
139 -52 3 2 3 1 0 -3 -3 -4 -137 -8 -297 -9 -243 -1 -301 -4 -348 -18 -270
-81 -394 -400 -247 -640 57 -95 171 -178 261 -193 75 -12 33 -18 -121 -17
-185 0 -226 -6 -310 -47 -228 -112 -309 -405 -172 -619 30 -47 89 -107 124
-127 9 -5 32 -54 51 -109 19 -54 40 -107 45 -116 6 -10 10 -24 10 -32 0 -7 9
-35 20 -62 10 -27 72 -200 136 -384 107 -308 167 -482 276 -790 22 -63 42
-122 45 -130 3 -13 20 -15 88 -14 l83 3 12 -30 c31 -74 135 -74 161 -1 l9 27
170 0 170 0 18 -35 c33 -67 124 -62 155 8 l12 27 213 0 c211 0 213 0 218 -22
14 -55 91 -79 137 -43 15 12 27 30 27 41 0 10 3 20 8 20 4 1 103 2 220 3 158
1 212 -2 212 -11 0 -23 46 -64 77 -69 42 -7 71 10 88 49 l13 32 171 0 171 0 9
-27 c25 -70 120 -75 153 -8 l18 36 85 -1 c47 -1 85 0 85 0 0 1 14 42 31 91 48
134 124 353 252 719 63 182 130 371 147 420 17 50 54 155 81 235 37 107 57
151 77 168 133 115 185 210 191 347 7 192 -113 368 -293 429 -59 20 -94 24
-271 26 l-140 1 60 19 c70 22 141 69 189 126 214 250 91 626 -230 707 -34 9
-141 13 -341 12 l-292 0 67 23 c74 27 144 73 193 129 36 42 85 140 95 193 11
56 6 158 -11 215 -34 119 -151 242 -265 280 -68 23 -73 23 -161 24 l-75 1 -3
43 c-14 263 -209 490 -472 551 -31 8 -107 14 -170 15 -63 1 -130 6 -149 11
-85 23 -149 102 -158 192 l-5 59 -37 -3 c-21 -1 -59 -9 -86 -18z"/>
</g>
</svg>
